PathFileType	4	(X/Y/Z)	Patient4_TMGait_0pt6_02_left_31.trc.trc
DataRate	CameraRate	NumFrames	NumMarkers	Units	OrigDataRate	OrigDataStartFrame	OrigNumFrames
83.333333333333	83.333333333333	6	33	mm	83.333333333333	124	       141
Frame#	Time	Sacral			L.Shoulder			Chest			R.Shoulder			Neck			R.ASIS			L.ASIS			R.Thigh.Superior			R.Thigh.Lateral			R.Thigh.Inferior			R.Patella			L.Thigh.Superior			L.Thigh.Lateral			L.Thigh.Inferior			L.Patella			L.Shank.Superior			L.Shank.Lateral			L.Shank.Inferior			R.Shank.Superior			R.Shank.Lateral			R.Shank.Inferior			R.Heel			R.Midfoot.Superior			R.Midfoot.Lateral			R.Toe			L.Heel			L.Midfoot.Lateral			L.Midfoot.Superior			L.Toe			L.Elbow			L.Wrist			R.Elbow			R.Wrist			
		X1	Y1	Z1	X2	Y2	Z2	X3	Y3	Z3	X4	Y4	Z4	X5	Y5	Z5	X6	Y6	Z6	X7	Y7	Z7	X8	Y8	Z8	X9	Y9	Z9	X10	Y10	Z10	X11	Y11	Z11	X12	Y12	Z12	X13	Y13	Z13	X14	Y14	Z14	X15	Y15	Z15	X16	Y16	Z16	X17	Y17	Z17	X18	Y18	Z18	X19	Y19	Z19	X20	Y20	Z20	X21	Y21	Z21	X22	Y22	Z22	X23	Y23	Z23	X24	Y24	Z24	X25	Y25	Z25	X26	Y26	Z26	X27	Y27	Z27	X28	Y28	Z28	X29	Y29	Z29	X30	Y30	Z30	X31	Y31	Z31	X32	Y32	Z32	X33	Y33	Z33	

124	39.376000000000	798.093714010359	1004.880538068515	505.281594786266	968.004346159702	1432.410263904844	322.366671804621	1090.170606653035	1350.965565829034	462.953932300576	1035.927826108999	1424.017497556739	647.473632483977	994.210462564146	1485.504175893902	473.522053016882	1029.827736340097	932.398144208257	601.252006656181	994.424655730444	952.609283855307	328.215930206190	1031.000028417401	722.063091207567	575.143576110327	931.815514339299	626.527801134331	639.555954589859	994.067393573370	562.224957895001	559.162991498125	975.736022949141	474.165124998432	564.871827829866	1066.229398910619	769.417594763723	353.480609421882	1009.087076058902	638.721915870364	284.037334156240	1116.320061705636	580.912152780703	338.426405183677	1138.931116231506	512.757184941070	336.595330207777	1120.902405059022	439.060775522796	328.987292145923	1046.577099131027	310.852648042219	286.439089235502	1132.894303674155	210.322793946361	338.999470935728	934.778442092180	390.461376693986	572.356108603012	847.445889122506	299.234070828145	634.667660191103	873.883934841503	199.198402903323	571.289994386807	722.198099261770	42.408009540683	539.342806515549	893.181182057393	96.248983601712	577.208726811820	803.988997288807	36.523695004359	615.642222104697	1012.217906129450	43.506665374957	608.004500780911	1042.190067318333	39.481075300357	384.580805443006	1112.890891032125	38.941218951283	301.372498014138	1189.724972382202	109.648790671089	319.331192427276	1320.134804898579	69.384339344654	288.376408205240	817.235682370507	1110.722658694129	223.925172254943	798.684224635809	852.173685876440	196.582288029118	1141.022582766618	1095.811468784998	749.406464081918	1343.211869279779	1164.630041626956	621.240177946088	
125	39.388000000000	799.044999632015	1003.352846868910	502.582122033468	967.261599718449	1431.341343420306	319.520909720292	1089.684103860173	1350.690318052244	460.442647103509	1034.388968262420	1423.551042867569	644.860908377506	992.953261364409	1484.697798653984	470.594471633328	1030.911584262924	931.379993932293	598.988453738734	995.971351139110	951.627996704806	326.083394606831	1031.643115678525	720.550942948915	573.292549753370	931.498367947724	625.417207437329	637.485719235657	993.439392238116	560.592990949237	557.272970176597	974.381318513276	472.013965763334	562.817063927676	1067.890009019707	767.236532703382	352.403199992749	1009.244692204873	637.034630965881	283.877286835289	1115.787738682933	578.649338618637	339.072588995659	1136.793972674116	509.630724843732	338.011077142598	1118.278943133823	435.779686923689	330.000652170740	1042.526039490364	308.489069540045	287.174685989287	1126.704375087401	206.929120150875	341.108122329240	932.058210937068	388.990576793020	570.578995141583	843.775033017802	299.064527692016	633.521040625812	868.423892735831	198.542674804710	570.313041571167	714.996198159344	42.740870733602	539.297852957977	886.090963793158	96.149384594013	576.933866360234	796.803796200479	36.603398102967	615.528517515646	1005.109268784974	42.979537065667	608.097104082870	1032.128305082661	38.446365342019	386.071358982148	1103.351621930067	37.095580706410	303.210181524659	1181.739322519458	105.671752197627	322.576101451036	1311.701985616223	62.445628682106	292.124891693529	817.414515815660	1109.230374418361	221.224324851197	800.216209819813	850.512837703446	193.707758285338	1137.931562310178	1094.951714074702	748.190561870917	1337.464122708923	1168.823030987960	619.124076125119	
126	39.400000000000	799.921659772801	1002.044623445612	499.955965352123	966.656403594810	1430.364777548825	316.561230241204	1089.309334750981	1350.494388268134	457.818094952451	1033.070727218115	1423.271713712562	642.107800939681	991.894814706105	1484.032840020305	467.507413605731	1031.935107329205	930.439244234161	596.624609767514	997.349275716005	950.893414457323	323.882347034116	1032.474656854035	719.148783762564	571.283886774673	931.596689306755	624.285214546663	635.275782883989	993.326955922768	559.004262422397	555.208290199297	973.738284203165	469.731118956688	560.745351905217	1069.479497280517	765.469273158665	351.278383404214	1009.594631130126	635.879067550246	283.355126549276	1115.392473122869	576.897391482217	339.432133877395	1134.870367959635	507.142884556631	339.073225420807	1115.976327903960	433.151020679531	330.636362688785	1039.107957696626	306.724228323509	287.195173886582	1121.093611346910	204.242365548336	342.628979422870	929.808335603484	387.508956411756	568.756751810179	840.393087649996	299.063820529465	632.282806259605	863.181965911404	198.013945813430	569.336348043097	707.815935543386	43.401657125979	539.265379302425	879.129568470097	96.112871385666	576.677561456614	789.661475197491	36.825567166882	615.384277708983	998.055391201461	42.390465571235	608.194736498256	1022.922161083846	37.804172321576	386.966340536432	1094.583754178327	35.871324196388	304.396005319980	1174.239974524676	102.625656842032	325.084120181347	1303.809886100902	56.998969995750	295.020096132162	818.147134977552	1107.607652638700	218.361986603331	802.568704781007	848.681208025720	190.719900638519	1134.339734350726	1094.083256414527	747.178798554065	1331.735759198366	1171.747938090998	617.259588136560	
127	39.412000000000	800.696204880579	1001.014934485554	497.425314295547	966.184299594811	1429.531713574549	313.528247115702	1089.039199351788	1350.401275802082	455.100454235705	1032.021803601052	1423.221497910019	639.235288566113	991.052996201647	1483.548325857232	464.305038402868	1032.850192444810	929.627877165800	594.157133184682	998.498558539410	950.447192055537	321.589680666908	1033.445655855668	717.921372943213	569.082737778701	932.142760877232	623.167902261895	632.946048642769	993.779226742066	557.514516741210	552.980405624798	973.898324959316	467.354685369780	558.728463083244	1070.937440398467	764.227710243239	350.050557941564	1010.123632777015	635.280493145715	282.444835650474	1115.101913084552	575.684639169982	339.424364919564	1133.169472426419	505.322986058090	339.703740383162	1113.975718810374	431.181517780828	330.888827526976	1036.263004719940	305.567591270571	286.532692911824	1115.996967397929	202.260499597951	343.578412154976	928.111620201901	386.058195305183	566.943933191258	837.358794032841	299.299749544407	630.979974383482	858.222060124680	197.677550474318	568.395824390212	700.689162633164	44.532643735344	539.256442936683	872.352130976107	96.163512928132	576.465341601004	782.583631219468	37.267589787148	615.216453218839	991.060636126546	41.750311949637	608.291230777923	1014.563617125370	37.503565379769	387.357441896272	1086.556150887291	35.181339812638	305.005767873892	1167.174911235979	100.485739785841	326.833645128094	1296.416896102965	53.075324024999	297.021398931604	819.421778944238	1105.923472621927	215.359090921242	805.731473566564	846.756246920157	187.623858567704	1130.203946444435	1093.268770727432	746.365121737216	1326.083225069590	1173.386881459307	615.640194856171	
128	39.424000000000	801.352518245806	1000.297604862743	494.987241936830	965.830151921162	1428.880532368687	310.462062652129	1088.858628394966	1350.426534802606	452.312790107111	1031.263432492241	1423.423957537178	636.269752085408	990.426868733471	1483.268587637564	461.035661308784	1033.619359152497	928.990258654813	591.587062724703	999.389990488708	950.305978599400	319.184755989781	1034.527041320724	716.929109960329	566.678225744843	933.172675731556	622.102332359464	630.526619116436	994.857882544660	556.180243901042	550.620244191892	974.950705488348	464.935503551716	556.844683347943	1072.221026041445	763.556635035087	348.654216440716	1010.758729104346	635.192224911474	281.164132511241	1114.833974355786	574.955444386181	339.000722621518	1131.630894431017	504.106687919299	339.877003770158	1112.181708957503	429.800246903701	330.794698813982	1033.828221368771	304.956069329996	285.305591786048	1111.265289357346	200.906631599180	344.034221524647	927.064598282676	384.683324285886	565.202193362138	834.754016824790	299.842649699445	629.647020616407	853.625614067708	197.604171060312	567.531310141276	693.667322573904	46.294719133496	539.282861355399	865.824277289678	96.328661762349	576.325938254764	775.600910477717	38.022770040730	615.036437023619	984.123856165905	41.075586061657	608.378771093908	1006.929948815878	37.465370328131	387.360810182575	1079.142684321929	34.902859034505	305.154415459866	1160.431129181796	99.139253981409	327.890337654422	1289.415399249455	50.544383399877	298.198193744382	821.195143707696	1104.244140602906	212.242433984927	809.695373949754	844.816365776067	184.428137648196	1125.485712149248	1092.570771201018	745.733968565065	1320.535308685129	1173.716679596026	614.262058004177	
129	39.436000000000	801.882784518278	999.899931174533	492.613907958523	965.571785836590	1428.433479942440	307.397122553953	1088.746743993999	1350.577876444733	449.479776652011	1030.783463733583	1423.881172235029	633.240876234046	989.997141901088	1483.201796581671	457.745363993756	1034.217181929711	928.556879063446	588.921682222734	1000.026082624997	950.462748136104	316.657576430079	1035.719315788666	716.222852909159	564.085050550376	934.728751511467	621.122996970798	628.052420881339	996.636360682142	555.054188690516	548.171044254647	976.978044089136	462.535179058823	555.161543762207	1073.300962085376	763.419220780278	347.020667169252	1011.355009897824	635.500487616174	279.573199548067	1114.459850154631	574.585730394691	338.153706450386	1130.132989418545	503.364302690944	339.625238781072	1110.439530568649	428.885605499212	330.421811179667	1031.575979694265	304.774220456157	283.693723132506	1106.709208937026	200.055839351519	344.113694763140	926.775095663274	383.430319124070	563.588026784695	832.684762818028	300.762035458222	628.319034018949	849.490261827878	197.867362593111	566.779543868990	686.825305144903	48.860600999188	539.354002022988	859.619769897403	96.639122777367	576.286800436310	768.754433740131	39.199557404896	614.857886644445	977.237209644813	40.387380527954	608.448751479516	999.834944858316	37.600232599751	387.100275259389	1072.168655936481	34.903407435034	304.974347062695	1153.873061551177	98.420274336605	328.381265135593	1282.669365072627	49.164171655860	298.696555630081	823.396552162155	1102.627536113861	209.039958820003	814.454784642034	842.936820216499	181.144842804231	1120.153451549559	1092.045663317442	745.259733554078	1315.088863030129	1172.706351181187	613.125615384467	
